<?xml version="1.0" standalone="no"?><svg xmlns="http://www.w3.org/2000/svg" viewBox="0 0 1440 320"><path fill="#FFBD59" fill-opacity="1" d="M0,288L34.3,282.7C68.6,277,137,267,206,266.7C274.3,267,343,277,411,240C480,203,549,117,617,106.7C685.7,96,754,160,823,170.7C891.4,181,960,139,1029,106.7C1097.1,75,1166,53,1234,80C1302.9,107,1371,181,1406,218.7L1440,256L1440,320L1405.7,320C1371.4,320,1303,320,1234,320C1165.7,320,1097,320,1029,320C960,320,891,320,823,320C754.3,320,686,320,617,320C548.6,320,480,320,411,320C342.9,320,274,320,206,320C137.1,320,69,320,34,320L0,320Z"></path></svg>